# xmcd
#
# Track frame offsets:
#	150
#	15280
#	28942
#	42370
#	61478
#	76986
#	92097
#	106611
#	128739
#	147579
#	164846
#	184238
#	192025
#	203713
#	224299
#	239337
#	260458
#
# Disc length: 3643 seconds
#
# Revision: 1
# Processed by: cddbd v1.5.1PL0 Copyright (c) Steve Scherf et al.
# Submitted via: CDmax 2.0
#
DISCID=ee0e3911
DTITLE=Al Cook - Down In Boogie Alley
DYEAR=2004
DGENRE=Blues
TTITLE0=Addie Lee
TTITLE1=Down In Boogie Alley
TTITLE2=Oh Babe
TTITLE3=The Southern Blues
TTITLE4=Main Street Blues
TTITLE5=No More Dogglin'
TTITLE6=Barrelhouse Woman
TTITLE7=Mister Sykes Blues
TTITLE8=Rider Blues
TTITLE9=Can't Get Along With You
TTITLE10=If I Ever Get Lucky
TTITLE11=Tell Me Mama
TTITLE12=Blind Willie Johnson Blues
TTITLE13=Rollin' Man Blues
TTITLE14=Low Down Dog Blues
TTITLE15=Black Woman Blues
TTITLE16=Silent Night Blues
EXTD=
EXTT0=
EXTT1=
EXTT2=
EXTT3=
EXTT4=
EXTT5=
EXTT6=
EXTT7=
EXTT8=
EXTT9=
EXTT10=
EXTT11=
EXTT12=
EXTT13=
EXTT14=
EXTT15=
EXTT16=
PLAYORDER=
